<svg xmlns="http://www.w3.org/2000/svg" viewBox="0 0 48 48" fill="none">
  <!-- Coffee cup body -->
  <path d="M8 18 L8 36 C8 39 11 42 15 42 L29 42 C33 42 36 39 36 36 L36 18" stroke="#27AE60" stroke-width="2.5" stroke-linecap="round" stroke-linejoin="round"/>
  <!-- Cup top rim -->
  <line x1="6" y1="18" x2="38" y2="18" stroke="#27AE60" stroke-width="2.5" stroke-linecap="round"/>
  <!-- Cup handle -->
  <path d="M36 22 C40 22 43 24 43 28 C43 32 40 34 36 34" stroke="#27AE60" stroke-width="2.5" stroke-linecap="round" stroke-linejoin="round"/>
  <!-- Saucer -->
  <ellipse cx="22" cy="44" rx="16" ry="2" stroke="#27AE60" stroke-width="1.5" stroke-linecap="round" opacity="0.4"/>
  <!-- Pause symbol on cup -->
  <line x1="18" y1="26" x2="18" y2="34" stroke="#27AE60" stroke-width="3" stroke-linecap="round"/>
  <line x1="26" y1="26" x2="26" y2="34" stroke="#27AE60" stroke-width="3" stroke-linecap="round"/>
  <!-- Small steam wisps -->
  <path d="M14 14 C14 12 16 11 16 9" stroke="#27AE60" stroke-width="1.5" stroke-linecap="round" opacity="0.35"/>
  <path d="M22 12 C22 10 24 9 24 7" stroke="#27AE60" stroke-width="1.5" stroke-linecap="round" opacity="0.45"/>
  <path d="M30 14 C30 12 32 11 32 9" stroke="#27AE60" stroke-width="1.5" stroke-linecap="round" opacity="0.35"/>
</svg>
