<svg xmlns="http://www.w3.org/2000/svg" viewBox="0 0 48 48" fill="none" stroke="#9B59B6" stroke-width="2.5" stroke-linecap="round" stroke-linejoin="round">
  <!-- Chart grid outer box -->
  <rect x="6" y="6" width="36" height="36" rx="3" />
  <!-- Grid lines horizontal -->
  <line x1="6" y1="18" x2="42" y2="18" />
  <line x1="6" y1="30" x2="42" y2="30" />
  <!-- Grid lines vertical -->
  <line x1="18" y1="6" x2="18" y2="42" />
  <line x1="30" y1="6" x2="30" y2="42" />
  <!-- Stars in some cells -->
  <path d="M12 10.5 L13 12.5 L15.2 12.8 L13.6 14.2 L14 16.5 L12 15.3 L10 16.5 L10.4 14.2 L8.8 12.8 L11 12.5 Z" fill="#9B59B6" stroke="none" />
  <path d="M24 10.5 L25 12.5 L27.2 12.8 L25.6 14.2 L26 16.5 L24 15.3 L22 16.5 L22.4 14.2 L20.8 12.8 L23 12.5 Z" fill="#9B59B6" stroke="none" />
  <path d="M36 10.5 L37 12.5 L39.2 12.8 L37.6 14.2 L38 16.5 L36 15.3 L34 16.5 L34.4 14.2 L32.8 12.8 L35 12.5 Z" fill="#9B59B6" stroke="none" />
  <path d="M12 22.5 L13 24.5 L15.2 24.8 L13.6 26.2 L14 28.5 L12 27.3 L10 28.5 L10.4 26.2 L8.8 24.8 L11 24.5 Z" fill="#9B59B6" stroke="none" />
  <path d="M24 22.5 L25 24.5 L27.2 24.8 L25.6 26.2 L26 28.5 L24 27.3 L22 28.5 L22.4 26.2 L20.8 24.8 L23 24.5 Z" fill="#9B59B6" stroke="none" />
  <!-- Empty cell bottom-right area (no star yet) -->
</svg>
