<svg xmlns="http://www.w3.org/2000/svg" viewBox="0 0 48 48" fill="none">
  <!-- Book -->
  <path d="M6 10 h14 a4 4 0 0 1 4 4 v24 a3 3 0 0 0-3-3 H6 z" stroke="#E67E22" stroke-width="2.5" stroke-linecap="round" stroke-linejoin="round"/>
  <path d="M24 14 a4 4 0 0 1 4 -4 h8 v25 h-9 a3 3 0 0 0-3 3 z" stroke="#E67E22" stroke-width="2.5" stroke-linecap="round" stroke-linejoin="round"/>
  <!-- Hand making sign (above right side) -->
  <circle cx="38" cy="16" r="2.5" stroke="#E67E22" stroke-width="2" stroke-linecap="round"/>
  <!-- Fingers -->
  <line x1="38" y1="13.5" x2="38" y2="8" stroke="#E67E22" stroke-width="2" stroke-linecap="round"/>
  <line x1="35.5" y1="14" x2="33" y2="10" stroke="#E67E22" stroke-width="2" stroke-linecap="round"/>
  <line x1="40.5" y1="14" x2="43" y2="10" stroke="#E67E22" stroke-width="2" stroke-linecap="round"/>
  <!-- Motion lines -->
  <path d="M43 18 c2 1, 2 3, 0 4" stroke="#E67E22" stroke-width="1.5" stroke-linecap="round" stroke-linejoin="round"/>
  <path d="M33 20 c-2 0, -2 2, 0 3" stroke="#E67E22" stroke-width="1.5" stroke-linecap="round" stroke-linejoin="round"/>
</svg>
