<svg xmlns="http://www.w3.org/2000/svg" width="48" height="48" viewBox="0 0 48 48">
  <circle cx="24" cy="24" r="22" fill="#4F46E5" opacity="0.1"/>
  <circle cx="24" cy="24" r="16" fill="#4F46E5" opacity="0.15"/>
  <path d="M24 12c-6.627 0-12 5.373-12 12s5.373 12 12 12 12-5.373 12-12-5.373-12-12-12zm0 2c5.523 0 10 4.477 10 10s-4.477 10-10 10-10-4.477-10-10 4.477-10 10-10z" fill="#4F46E5"/>
  <circle cx="19" cy="22" r="2.5" fill="#4F46E5"/>
  <circle cx="29" cy="22" r="2.5" fill="#4F46E5"/>
  <path d="M18 29c0 0 2 3 6 3s6-3 6-3" stroke="#4F46E5" stroke-width="2" stroke-linecap="round" fill="none"/>
</svg>
