<svg xmlns="http://www.w3.org/2000/svg" viewBox="0 0 48 48" fill="none">
  <!-- Hanger hook -->
  <path d="M24 4 C24 4 28 4 28 7 C28 10 24 10 24 10" stroke="#3498DB" stroke-width="2.5" stroke-linecap="round" stroke-linejoin="round"/>
  <!-- Hanger body -->
  <polyline points="8,20 24,10 40,20" stroke="#3498DB" stroke-width="2.5" stroke-linecap="round" stroke-linejoin="round"/>
  <!-- T-shirt body -->
  <path d="M12 20 L8 26 L14 28 L14 42 L34 42 L34 28 L40 26 L36 20" stroke="#3498DB" stroke-width="2.5" stroke-linecap="round" stroke-linejoin="round"/>
  <!-- T-shirt neckline -->
  <path d="M18 20 C18 20 21 24 24 24 C27 24 30 20 30 20" stroke="#3498DB" stroke-width="2" stroke-linecap="round" stroke-linejoin="round"/>
  <!-- Sleeve lines -->
  <line x1="14" y1="28" x2="14" y2="20" stroke="#3498DB" stroke-width="2" stroke-linecap="round" opacity="0.3"/>
  <line x1="34" y1="28" x2="34" y2="20" stroke="#3498DB" stroke-width="2" stroke-linecap="round" opacity="0.3"/>
  <!-- Small star decoration on shirt -->
  <polygon points="24,32 25.5,35 29,35.5 26.5,37.5 27,41 24,39 21,41 21.5,37.5 19,35.5 22.5,35" fill="#3498DB" opacity="0.2" stroke="#3498DB" stroke-width="1" stroke-linejoin="round"/>
</svg>
