<svg xmlns="http://www.w3.org/2000/svg" viewBox="0 0 48 48" fill="none">
  <!-- Pot body -->
  <path d="M8 22 L8 36 C8 39 11 42 16 42 L32 42 C37 42 40 39 40 36 L40 22" stroke="#3498DB" stroke-width="2.5" stroke-linecap="round" stroke-linejoin="round"/>
  <!-- Pot rim -->
  <line x1="5" y1="22" x2="43" y2="22" stroke="#3498DB" stroke-width="2.5" stroke-linecap="round"/>
  <!-- Pot lid knob -->
  <circle cx="24" cy="18" r="2" stroke="#3498DB" stroke-width="2" stroke-linecap="round"/>
  <!-- Pot handles -->
  <path d="M5 28 L3 28 C2 28 1 27 1 26 C1 25 2 24 3 24 L5 24" stroke="#3498DB" stroke-width="2" stroke-linecap="round" stroke-linejoin="round"/>
  <path d="M43 28 L45 28 C46 28 47 27 47 26 C47 25 46 24 45 24 L43 24" stroke="#3498DB" stroke-width="2" stroke-linecap="round" stroke-linejoin="round"/>
  <!-- Steam wisps -->
  <path d="M16 14 C16 12 18 11 18 9 C18 7 16 6 16 4" stroke="#3498DB" stroke-width="2" stroke-linecap="round" opacity="0.4"/>
  <path d="M24 12 C24 10 26 9 26 7 C26 5 24 4 24 2" stroke="#3498DB" stroke-width="2" stroke-linecap="round" opacity="0.5"/>
  <path d="M32 14 C32 12 34 11 34 9 C34 7 32 6 32 4" stroke="#3498DB" stroke-width="2" stroke-linecap="round" opacity="0.4"/>
</svg>
