<svg xmlns="http://www.w3.org/2000/svg" viewBox="0 0 48 48" fill="none">
  <!-- Board/strip background -->
  <rect x="4" y="8" width="40" height="32" rx="4" stroke="#E67E22" stroke-width="2.5" stroke-linecap="round" stroke-linejoin="round"/>
  <!-- Sentence strip at top -->
  <rect x="8" y="12" width="32" height="8" rx="2" stroke="#E67E22" stroke-width="1.5" stroke-linecap="round" stroke-linejoin="round" fill="#E67E22" fill-opacity="0.1"/>
  <!-- Small squares in sentence strip -->
  <rect x="10" y="13.5" width="5" height="5" rx="1" fill="#E67E22" opacity="0.4"/>
  <rect x="17" y="13.5" width="5" height="5" rx="1" fill="#E67E22" opacity="0.4"/>
  <rect x="24" y="13.5" width="5" height="5" rx="1" fill="#E67E22" opacity="0.4"/>
  <!-- Picture squares grid below -->
  <rect x="8" y="24" width="7" height="7" rx="1.5" stroke="#E67E22" stroke-width="2" stroke-linecap="round" stroke-linejoin="round"/>
  <rect x="17.5" y="24" width="7" height="7" rx="1.5" stroke="#E67E22" stroke-width="2" stroke-linecap="round" stroke-linejoin="round"/>
  <rect x="27" y="24" width="7" height="7" rx="1.5" stroke="#E67E22" stroke-width="2" stroke-linecap="round" stroke-linejoin="round"/>
  <rect x="36.5" y="24" width="7" height="7" rx="1.5" stroke="#E67E22" stroke-width="2" stroke-linecap="round" stroke-linejoin="round" fill="#E67E22" fill-opacity="0.2"/>
  <!-- Tiny icons inside squares -->
  <circle cx="11.5" cy="27.5" r="1.5" fill="#E67E22" opacity="0.5"/>
  <rect x="19.5" y="26" width="3" height="3" rx="0.5" fill="#E67E22" opacity="0.5"/>
  <polygon points="30.5,26 32,29 29,29" fill="#E67E22" opacity="0.5"/>
  <circle cx="40" cy="27.5" r="1.5" fill="#E67E22" opacity="0.5"/>
</svg>
