<svg xmlns="http://www.w3.org/2000/svg" viewBox="0 0 48 48" fill="none">
  <!-- Row 1: checkbox + picture placeholder -->
  <rect x="6" y="6" width="7" height="7" rx="1.5" stroke="#3498DB" stroke-width="2" stroke-linecap="round" stroke-linejoin="round"/>
  <polyline points="8,10 10,12.5 14,7.5" stroke="#3498DB" stroke-width="2" stroke-linecap="round" stroke-linejoin="round" opacity="0.6"/>
  <rect x="18" y="5" width="24" height="9" rx="2" stroke="#3498DB" stroke-width="2" stroke-linecap="round" stroke-linejoin="round"/>
  <!-- Small mountain icon inside placeholder 1 -->
  <polyline points="21,12 24,8 27,12" stroke="#3498DB" stroke-width="1.5" stroke-linecap="round" stroke-linejoin="round" opacity="0.4"/>
  <circle cx="36" cy="8" r="1.5" fill="#3498DB" opacity="0.3"/>

  <!-- Row 2: checkbox + picture placeholder -->
  <rect x="6" y="20" width="7" height="7" rx="1.5" stroke="#3498DB" stroke-width="2" stroke-linecap="round" stroke-linejoin="round"/>
  <rect x="18" y="19" width="24" height="9" rx="2" stroke="#3498DB" stroke-width="2" stroke-linecap="round" stroke-linejoin="round"/>
  <polyline points="21,26 25,22 29,26" stroke="#3498DB" stroke-width="1.5" stroke-linecap="round" stroke-linejoin="round" opacity="0.4"/>
  <circle cx="36" cy="22" r="1.5" fill="#3498DB" opacity="0.3"/>

  <!-- Row 3: checkbox + picture placeholder -->
  <rect x="6" y="34" width="7" height="7" rx="1.5" stroke="#3498DB" stroke-width="2" stroke-linecap="round" stroke-linejoin="round"/>
  <rect x="18" y="33" width="24" height="9" rx="2" stroke="#3498DB" stroke-width="2" stroke-linecap="round" stroke-linejoin="round"/>
  <polyline points="21,40 25,36 29,40" stroke="#3498DB" stroke-width="1.5" stroke-linecap="round" stroke-linejoin="round" opacity="0.4"/>
  <circle cx="36" cy="36" r="1.5" fill="#3498DB" opacity="0.3"/>
</svg>
