<svg xmlns="http://www.w3.org/2000/svg" viewBox="0 0 100 100">
  <rect width="100" height="100" rx="20" fill="#9B59B6"/>
  <!-- Book -->
  <path d="M25 25 L50 20 L75 25 L75 75 L50 70 L25 75Z" fill="white" opacity="0.95"/>
  <line x1="50" y1="20" x2="50" y2="70" stroke="#9B59B6" stroke-width="2"/>
  <!-- Pages lines -->
  <line x1="32" y1="35" x2="46" y2="32" stroke="#9B59B6" stroke-width="1.5" opacity="0.5"/>
  <line x1="32" y1="42" x2="46" y2="39" stroke="#9B59B6" stroke-width="1.5" opacity="0.5"/>
  <line x1="32" y1="49" x2="46" y2="46" stroke="#9B59B6" stroke-width="1.5" opacity="0.5"/>
  <line x1="54" y1="32" x2="68" y2="35" stroke="#9B59B6" stroke-width="1.5" opacity="0.5"/>
  <line x1="54" y1="39" x2="68" y2="42" stroke="#9B59B6" stroke-width="1.5" opacity="0.5"/>
  <!-- Stars -->
  <polygon points="20,15 22,11 24,15 20,12 24,12" fill="#F1C40F"/>
  <polygon points="78,12 80,8 82,12 78,9 82,9" fill="#F1C40F"/>
  <polygon points="60,10 61.5,7 63,10 60,8 63,8" fill="#F1C40F"/>
  <polygon points="35,80 37,76 39,80 35,77 39,77" fill="#F1C40F"/>
  <polygon points="65,78 67,74 69,78 65,75 69,75" fill="#F1C40F"/>
</svg>
