<svg xmlns="http://www.w3.org/2000/svg" viewBox="0 0 48 48" fill="none">
  <!-- Back card -->
  <rect x="10" y="6" width="24" height="30" rx="3" stroke="#E67E22" stroke-width="2" stroke-linecap="round" stroke-linejoin="round" opacity="0.4"/>
  <!-- Middle card -->
  <rect x="7" y="9" width="24" height="30" rx="3" stroke="#E67E22" stroke-width="2" stroke-linecap="round" stroke-linejoin="round" opacity="0.65"/>
  <!-- Front card -->
  <rect x="4" y="12" width="24" height="30" rx="3" stroke="#E67E22" stroke-width="2.5" stroke-linecap="round" stroke-linejoin="round"/>
  <!-- Lines on front card -->
  <line x1="10" y1="22" x2="22" y2="22" stroke="#E67E22" stroke-width="2" stroke-linecap="round"/>
  <line x1="10" y1="28" x2="19" y2="28" stroke="#E67E22" stroke-width="2" stroke-linecap="round"/>
  <!-- Speech bubble -->
  <path d="M32 10 h8 a3 3 0 0 1 3 3 v8 a3 3 0 0 1-3 3 h-2 l-3 3.5 v-3.5 h-3 a3 3 0 0 1-3-3 v-8 a3 3 0 0 1 3-3z" fill="#E67E22" opacity="0.2" stroke="#E67E22" stroke-width="2" stroke-linecap="round" stroke-linejoin="round"/>
</svg>
