<svg xmlns="http://www.w3.org/2000/svg" viewBox="0 0 48 48" fill="none">
  <!-- Picture card -->
  <rect x="22" y="6" width="20" height="20" rx="3" stroke="#E67E22" stroke-width="2.5" stroke-linecap="round" stroke-linejoin="round"/>
  <!-- Simple image on card (star) -->
  <polygon points="32,11 33.5,15 37.5,15 34.5,17.5 35.5,21.5 32,19 28.5,21.5 29.5,17.5 26.5,15 30.5,15" fill="#E67E22" opacity="0.5"/>
  <!-- Hand outline reaching for card -->
  <path d="M6 38 c0-4, 2-8, 4-10 l6-6 c1.5-1.5, 3.5-0.5, 3 1.5 l-2 5 h5 c2 0, 3 1.5, 2.5 3 l-1 4 c-0.5 2-2 3.5-4 3.5 H8 c-1 0-2-1-2-2z" stroke="#E67E22" stroke-width="2.5" stroke-linecap="round" stroke-linejoin="round"/>
  <!-- Motion arrow -->
  <path d="M20 20 l3-4" stroke="#E67E22" stroke-width="2" stroke-linecap="round"/>
  <polyline points="21,14 23,16 25,14.5" stroke="#E67E22" stroke-width="1.5" stroke-linecap="round" stroke-linejoin="round"/>
</svg>
