<svg xmlns="http://www.w3.org/2000/svg" viewBox="0 0 48 48" fill="none">
  <!-- Open book - left page -->
  <path d="M24 12 C22 10, 16 8, 6 8 v28 c10 0, 16 2, 18 4" stroke="#E67E22" stroke-width="2.5" stroke-linecap="round" stroke-linejoin="round"/>
  <!-- Open book - right page -->
  <path d="M24 12 C26 10, 32 8, 42 8 v28 c-10 0-16 2-18 4" stroke="#E67E22" stroke-width="2.5" stroke-linecap="round" stroke-linejoin="round"/>
  <!-- Book spine -->
  <line x1="24" y1="12" x2="24" y2="40" stroke="#E67E22" stroke-width="2" stroke-linecap="round"/>
  <!-- Bottom edge -->
  <path d="M6 36 c10 0, 16 2, 18 4 c2-2, 8-4, 18-4" stroke="#E67E22" stroke-width="2.5" stroke-linecap="round" stroke-linejoin="round"/>
  <!-- Person icon on left page -->
  <circle cx="15" cy="17" r="3" stroke="#E67E22" stroke-width="2" stroke-linecap="round"/>
  <path d="M10 28 c0-4, 2.5-6, 5-6 s5 2, 5 6" stroke="#E67E22" stroke-width="2" stroke-linecap="round" stroke-linejoin="round"/>
  <!-- Text lines on right page -->
  <line x1="28" y1="16" x2="38" y2="16" stroke="#E67E22" stroke-width="2" stroke-linecap="round"/>
  <line x1="28" y1="21" x2="37" y2="21" stroke="#E67E22" stroke-width="2" stroke-linecap="round"/>
  <line x1="28" y1="26" x2="38" y2="26" stroke="#E67E22" stroke-width="2" stroke-linecap="round"/>
  <line x1="28" y1="31" x2="34" y2="31" stroke="#E67E22" stroke-width="2" stroke-linecap="round"/>
</svg>
